<?xml version="1.0" standalone="no"?>
<!DOCTYPE svg PUBLIC "-//W3C//DTD SVG 20010904//EN"
 "http://www.w3.org/TR/2001/REC-SVG-20010904/DTD/svg10.dtd">
<svg version="1.0" xmlns="http://www.w3.org/2000/svg"
 width="640.000000pt" height="640.000000pt" viewBox="0 0 640.000000 640.000000"
 preserveAspectRatio="xMidYMid meet">
<metadata>
Created by potrace 1.11, written by Peter Selinger 2001-2013
</metadata>
<g transform="translate(0.000000,640.000000) scale(0.100000,-0.100000)"
fill="#000000" stroke="none">
<path d="M0 4998 l0 -223 532 0 c293 -1 535 2 538 6 3 4 5 103 5 221 l-1 213
-536 3 -537 2 -1 -222z"/>
<path d="M1164 4998 l1 -223 538 -1 537 -1 0 224 0 223 -538 0 -539 0 1 -222z"/>
<path d="M2330 4997 l0 -222 537 0 538 0 0 220 0 220 -537 3 -538 2 0 -223z"/>
<path d="M3495 4998 l0 -223 538 0 537 -1 0 223 0 223 -538 0 -538 0 1 -222z"/>
<path d="M4660 4997 l0 -223 537 1 538 0 0 223 0 222 -537 0 -538 0 0 -223z"/>
<path d="M677 4710 c-9 -4 -12 -60 -12 -222 l0 -218 537 0 538 0 0 223 0 222
-525 0 c-289 0 -531 -2 -538 -5z"/>
<path d="M1840 4712 c-6 -2 -10 -86 -10 -223 l0 -219 539 0 538 0 -1 222 -1
222 -528 1 c-290 0 -532 -1 -537 -3z"/>
<path d="M2999 4710 c-4 -15 -5 -417 -1 -427 3 -10 120 -13 538 -13 l534 0 0
220 c0 169 -3 220 -12 221 -48 4 -1058 3 -1059 -1z"/>
<path d="M4160 4493 l1 -223 537 0 537 0 0 220 c0 189 -2 220 -15 221 -8 1
-250 2 -537 2 l-523 2 0 -222z"/>
<path d="M5331 4710 c-3 -3 -6 -103 -6 -222 l0 -218 538 0 537 0 -2 222 -3
222 -528 1 c-291 0 -532 -2 -536 -5z"/>
<path d="M0 3986 l0 -223 538 1 537 1 1 210 c0 116 -2 216 -4 223 -3 9 -120
12 -538 12 l-534 0 0 -224z"/>
<path d="M1164 3988 l1 -223 538 -3 537 -2 0 225 0 225 -538 0 -539 0 1 -222z"/>
<path d="M2330 3986 l0 -223 537 1 538 1 0 220 0 220 -538 3 -537 2 0 -224z"/>
<path d="M3495 3988 l0 -223 538 -1 537 -2 0 224 0 224 -538 0 -538 0 1 -222z"/>
<path d="M4660 3986 l0 -224 537 2 538 1 1 210 c0 116 -2 216 -4 223 -3 9
-120 12 -538 12 l-534 0 0 -224z"/>
<path d="M1688 3702 l-27 -3 2 -222 2 -222 538 0 537 0 0 222 c0 171 -3 223
-12 224 -41 2 -1018 3 -1040 1z"/>
<path d="M2953 3702 l-123 -3 0 -219 c0 -169 3 -220 13 -221 34 -2 1043 -4
1052 -2 10 3 14 428 3 438 -6 6 -749 12 -945 7z"/>
<path d="M4001 3700 c-10 -7 -10 -433 0 -440 4 -3 245 -5 536 -4 l528 1 3 221
2 222 -37 0 c-621 4 -1026 4 -1032 0z"/>
<path d="M5197 3702 l-37 -3 2 -221 3 -221 523 -1 c288 -1 529 2 535 6 11 7
17 412 6 429 -5 9 -939 19 -1032 11z"/>
<path d="M500 3478 l0 -223 528 1 c291 0 533 3 538 6 5 4 9 98 8 220 l0 213
-537 3 -537 2 0 -222z"/>
<path d="M53 3123 c-3 -6 -5 -106 -6 -222 l-2 -211 538 0 537 0 1 43 c0 48 0
352 0 382 -1 20 -8 20 -532 20 -400 0 -533 -3 -536 -12z"/>
<path d="M1214 3131 c-2 -2 -4 -103 -4 -223 0 -167 3 -218 13 -219 16 -1 1027
-1 1049 0 15 1 16 21 15 223 l-2 223 -533 0 c-294 0 -536 -2 -538 -4z"/>
<path d="M2383 3122 c-3 -7 -6 -107 -7 -222 l-1 -210 538 0 537 0 1 23 c2 90
-3 412 -6 416 -3 2 -242 5 -531 5 -419 1 -528 -2 -531 -12z"/>
<path d="M3550 3130 c-4 -3 -8 -103 -8 -223 l0 -217 537 0 537 0 0 220 0 220
-25 1 c-135 3 -1035 3 -1041 -1z"/>
<path d="M4710 3115 c-1 -27 -1 -262 0 -352 l0 -73 535 0 535 0 1 33 c2 163
-1 400 -5 405 -3 3 -245 6 -536 6 -523 1 -530 1 -530 -19z"/>
<path d="M549 2612 c0 -27 -1 -406 0 -419 1 -9 134 -12 536 -12 l535 0 0 224
0 224 -535 0 c-499 0 -535 -1 -536 -17z"/>
<path d="M1710 2405 l0 -225 539 0 539 0 1 225 0 225 -539 0 -540 0 0 -225z"/>
<path d="M2878 2623 c-3 -7 -2 -386 1 -430 1 -10 122 -12 536 -12 l535 0 0
224 0 224 -534 1 c-294 0 -536 -3 -538 -7z"/>
<path d="M4040 2405 l0 -225 538 3 537 2 0 220 0 220 -537 2 -538 2 0 -224z"/>
<path d="M5209 2617 c0 -6 -1 -106 -1 -222 l-1 -210 536 -2 537 -2 0 224 0
224 -535 0 c-416 0 -535 -2 -536 -12z"/>
<path d="M1095 2122 l-51 -3 2 -217 c1 -119 2 -219 3 -222 0 -3 241 -5 533 -5
l533 0 3 223 2 222 -27 0 c-142 3 -960 4 -998 2z"/>
<path d="M2532 2122 l-322 -2 2 -222 3 -222 528 -1 c291 0 532 2 536 5 4 3 7
103 7 222 l1 217 -216 3 c-119 2 -361 2 -539 0z"/>
<path d="M3379 2118 c-1 -2 -2 -99 -3 -216 0 -133 3 -216 9 -221 5 -4 246 -7
535 -6 l525 0 3 223 2 222 -535 0 c-294 0 -535 -1 -536 -2z"/>
<path d="M4542 1898 l3 -222 515 -1 c283 0 524 1 536 3 20 4 20 9 20 220 l-1
217 -538 3 -537 2 2 -222z"/>
<path d="M550 1590 c-1 -53 -2 -317 -1 -367 l1 -53 535 0 535 0 -2 223 -3 222
-532 0 -533 1 0 -26z"/>
<path d="M1710 1393 l0 -223 540 0 541 0 -3 223 -3 222 -537 1 -538 1 0 -224z"/>
<path d="M2877 1605 c-2 -8 0 -406 2 -427 1 -5 242 -8 536 -8 l535 0 0 223 0
223 -535 -1 c-348 0 -536 -3 -538 -10z"/>
<path d="M4040 1393 l0 -223 538 0 539 0 -1 223 -1 222 -537 0 -537 0 -1 -222z"/>
<path d="M5209 1575 c0 -68 -1 -359 0 -382 l1 -22 535 0 535 0 0 222 0 222
-535 0 -535 0 -1 -40z m562 -252 c13 -16 12 -17 -3 -4 -10 7 -18 15 -18 17 0
8 8 3 21 -13z m-410 -90 c13 -16 12 -17 -3 -4 -10 7 -18 15 -18 17 0 8 8 3 21
-13z m99 13 c0 -2 -8 -10 -17 -17 -16 -13 -17 -12 -4 4 13 16 21 21 21 13z"/>
</g>
</svg>
